<?xml version="1.0" encoding="utf-8"?>
<svg version="1.1" xmlns="http://www.w3.org/2000/svg" style="display: block;" viewBox="-3 287.405 1671.182 1520.691" width="1024" height="1024" preserveAspectRatio="none" xmlns:bx="https://boxy-svg.com"><defs><bx:export><bx:file format="svg" path="logo_mop_clean.svg"/></bx:export></defs><path fill="rgb(64,39,147)" d="M 381.926 787.249 C 384.022 792.24 384.893 796.729 386.438 801.836 C 389.624 812.369 394.976 819.628 401.579 828.254 C 478.963 904.538 556.174 979.853 632.442 1057.251 C 632.455 1062.571 632.287 1147.13 632.325 1163.88 C 632.438 1212.76 638.338 1258.59 604.149 1298.93 C 592.069 1313.18 580.324 1321.56 563.515 1329.89 C 560.068 1331.59 552.305 1334.63 549.564 1336.39 C 501.598 1348.39 462.57 1342.06 424.086 1309.84 C 396.818 1283.29 383.817 1257.74 382.796 1219.05 C 384.271 1114.91 383.295 1006.08 382.779 901.603 C 382.7 863.484 382.416 825.365 381.926 787.249 Z"/><path fill="rgb(174,144,238)" d="M 217.581 750.743 C 232.559 744.714 256.147 745.563 268.173 749.824 C 309.625 766.842 325.35 804.753 308.905 846.287 C 301.913 863.946 279.718 882.612 265.596 895.873 C 256.519 904.722 215.969 945.495 215.969 945.495 C 207.624 953.996 168.943 993.152 168.943 993.152 L 203.073 1027.03 C 192.12 1039.98 124.578 1070.37 107.433 1081.99 C 94.398 1090.82 79.891 1088.08 65.692 1088.91 C 56.342 1080.38 46.737 1070.27 37.828 1061.65 C 13.167 1037.78 7.201 1030.26 1.557 997.022 C -2.38 983.142 7.502 951.793 17.204 941.233 C 27.257 930.291 38.71 919.076 49.282 908.503 C 72.076 885.719 95.005 863.071 118.07 840.562 L 169.751 789.283 C 186.281 772.892 195.908 760.148 217.581 750.743 Z"/><path fill="rgb(64,39,147)" d="M 203.073 1027.03 L 263.033 1086.65 C 276.165 1099.71 300.297 1120.04 308.048 1135.49 C 328.364 1175.97 307.706 1220.07 267.203 1235.28 C 248.89 1240.27 236.06 1239.51 218.504 1233.23 C 212.279 1230.15 203.842 1225.75 198.84 1220.83 C 154.485 1177.19 109.208 1133.34 65.692 1088.91 C 79.891 1088.08 94.398 1090.82 107.433 1081.99 C 124.578 1070.37 192.12 1039.98 203.073 1027.03 Z"/><path fill="rgb(174,144,238)" d="M 1147.18 647.454 C 1162.5 647.319 1170.35 648.074 1185.42 650.966 C 1209.52 657.939 1220.88 664.612 1240.11 679.831 L 1246.91 686.597 C 1263.5 705.339 1269.25 714.806 1277.43 738.109 C 1280.59 750.769 1284.22 779.859 1282.56 792.541 L 1281.56 788.175 C 1278.25 795.394 1277.08 811.15 1270.44 818.819 C 1250.49 841.862 1227.82 863.176 1206.14 884.637 L 1092.76 997.912 C 1074.97 1015.75 1048.37 1041.02 1031.87 1059.42 C 1021.06 1071.89 988.747 1106.39 988.747 1106.39 L 953.378 1140.86 C 939.699 1151.55 910.994 1173.34 886.822 1184.1 C 870.002 1191.58 846.178 1196.77 836.913 1197.37 C 829.535 1197.84 818.056 1197.81 810.616 1197.26 C 799.635 1195.15 791.422 1192.99 780.985 1189.11 C 762.723 1181.9 739.208 1166.13 726.669 1150.98 C 695.57 1121.16 662.91 1089.067 632.054 1058.777 C 628.645 1036.957 631.512 1010.11 645.561 991.852 C 661.374 971.292 688.045 964.948 711.748 956.497 L 776.961 932.947 C 786.802 929.458 825.066 915.272 832.716 914.184 C 832.716 914.184 848.773 899.322 854.906 893.609 C 864.456 884.825 874.406 874.61 883.426 865.248 C 887.917 860.606 900.486 847.715 906.396 841.92 C 913.616 835.721 927.686 821.193 934.466 814.067 C 941.906 806.809 949.016 799.186 956.166 791.641 C 960.146 788.817 982.156 766.344 986.356 762.142 C 1002.59 747.028 1021.2 727.457 1036.83 711.481 C 1044.88 703.512 1052.93 695.125 1060.87 687.014 C 1069.41 678.56 1078.91 671.137 1089.17 664.897 C 1111.71 652.805 1121.86 650.476 1147.18 647.454 Z"/><path d="M 883.426 865.248 C 880.606 860.071 900.486 839.691 906.396 841.92 C 899.126 849.277 890.806 858.2 883.426 865.248 Z" style="fill: rgba(255, 255, 255, 0);"/><path fill="rgb(124,92,201)" d="M 1031.87 1059.42 C 1048.37 1041.02 1074.97 1015.75 1092.76 997.912 L 1206.14 884.637 C 1227.82 863.176 1250.49 841.862 1270.44 818.819 C 1277.08 811.15 1278.25 795.394 1281.56 788.175 L 1282.56 792.541 C 1281.01 838.878 1281.43 897.252 1281.94 944.016 L 1281.85 994.362 C 1281.79 1011.28 1281.53 1028.71 1281.85 1045.59 C 1281.87 1063.01 1282.03 1080.61 1281.83 1098.02 C 1281.6 1115.07 1281.58 1132.12 1281.77 1149.18 L 1281.7 1200.73 C 1280.96 1248.15 1276.09 1275.33 1240.81 1310.24 C 1227.91 1320.61 1206.88 1334.59 1190.21 1337.55 C 1171.01 1343.06 1156.78 1343.07 1137.01 1340.89 C 1117.26 1337.75 1106.23 1333.15 1089.18 1323.39 C 1078.27 1316.9 1070.09 1309.07 1061.6 1299.8 C 1049.12 1283.87 1045.3 1276.66 1038.07 1257.78 C 1032.6 1238.19 1032.51 1227.13 1031.95 1206.92 L 1032.15 1144.28 L 1031.88 1103.9 L 1031.87 1087.73 C 1032.28 1079.2 1031.91 1068.13 1031.87 1059.42 Z"/><path fill="rgb(124,92,201)" d="M 475.012 652.123 C 491.645 647.214 507.434 646.756 524.553 647.666 C 542.902 650.643 557.533 654.249 573.695 663.982 C 585.894 671.014 592.88 676.397 603.09 686.339 C 610.935 694.295 618.891 702.563 626.93 710.287 L 655.167 738.185 C 662.713 746.37 670.569 754.264 678.718 761.849 C 688.676 772.084 698.771 782.185 709 792.148 L 729.365 812.598 C 738.724 822.113 748.245 831.468 757.922 840.659 L 777.603 860.283 L 810.226 892.229 C 815.186 897.157 832.716 914.184 832.716 914.184 C 786.952 963.959 780.457 971.848 737.185 1020.601 C 704.575 1057.341 727.574 1031.745 668.808 1094.848 C 668.808 1094.848 480.539 907.165 401.579 828.254 C 394.976 819.628 389.624 812.369 386.438 801.836 C 384.893 796.729 384.022 792.24 381.926 787.249 C 381.501 784.279 381.809 773.445 382.038 769.847 C 384.33 733.869 399.104 703.663 425.727 679.752 C 442.136 665.374 454.651 659.022 475.012 652.123 Z"/><path fill="rgb(174,144,238)" d="M 1394.7 749.994 C 1413.98 744.538 1425.77 743.902 1444.91 749.446 C 1467 758.527 1479.42 773.366 1496.05 789.832 L 1547.21 840.962 L 1611.1 903.965 C 1623.93 916.557 1640.41 931.521 1651.26 945.794 C 1656.6 952.805 1663.53 975.502 1663 984.222 L 1663.38 994.482 C 1661.79 1035.74 1631.28 1057.11 1602.77 1085.18 C 1591.17 1085.88 1574.03 1088.78 1563.84 1082.94 C 1544.74 1071.98 1472.73 1040.42 1461.99 1028 L 1497.34 992.722 C 1485.41 983.032 1455.83 951.852 1443.95 939.877 L 1396.12 892.42 C 1382.78 879.372 1363.69 863.398 1356.17 846.593 C 1338.46 807.018 1355.58 767.478 1394.7 749.994 Z"/><path fill="rgb(64,39,147)" d="M 1396.02 1234.3 C 1360.01 1220.6 1341.84 1185.74 1352.4 1148.38 C 1359.16 1124.48 1381.96 1107.15 1399.37 1089.96 L 1461.99 1028 C 1472.73 1040.42 1544.74 1071.98 1563.84 1082.94 C 1574.03 1088.78 1591.17 1085.88 1602.77 1085.18 L 1512.36 1175.77 C 1493.06 1195.16 1469.8 1224.3 1444.73 1234.12 C 1427.45 1240.23 1413.16 1239.26 1396.02 1234.3 Z"/></svg>